<?xml version="1.0" standalone="no"?>
<!DOCTYPE svg PUBLIC "-//W3C//DTD SVG 20010904//EN"
 "http://www.w3.org/TR/2001/REC-SVG-20010904/DTD/svg10.dtd">
<svg version="1.0" xmlns="http://www.w3.org/2000/svg"
 width="400.000000pt" height="400.000000pt" viewBox="0 0 400.000000 400.000000"
 preserveAspectRatio="xMidYMid meet">

<g transform="translate(0.000000,400.000000) scale(0.100000,-0.100000)"
fill="#000000" stroke="none">
<path d="M1770 3655 c-373 -56 -689 -214 -950 -475 -552 -551 -648 -1393 -237
-2065 27 -44 52 -82 56 -85 4 -3 18 -21 31 -40 65 -93 227 -255 320 -320 19
-13 37 -27 40 -31 3 -4 41 -29 85 -56 406 -248 885 -317 1330 -191 202 57 398
152 545 264 157 119 235 197 354 354 112 147 207 343 264 545 126 445 57 924
-191 1330 -27 44 -52 82 -56 85 -4 3 -18 21 -31 40 -65 93 -227 255 -320 320
-19 13 -37 27 -40 31 -10 14 -168 106 -250 146 -283 136 -646 193 -950 148z"/>
</g>
</svg>
