<?xml version="1.0" standalone="no"?>
<!DOCTYPE svg PUBLIC "-//W3C//DTD SVG 20010904//EN"
 "http://www.w3.org/TR/2001/REC-SVG-20010904/DTD/svg10.dtd">
<svg version="1.0" xmlns="http://www.w3.org/2000/svg"
 width="400.000000pt" height="400.000000pt" viewBox="0 0 400.000000 400.000000"
 preserveAspectRatio="xMidYMid meet">

<g transform="translate(0.000000,400.000000) scale(0.100000,-0.100000)"
fill="#000000" stroke="none">
<path d="M1932 3908 c-104 -142 -337 -463 -716 -987 -34 -46 -81 -111 -106
-145 -25 -33 -99 -135 -164 -226 -66 -91 -136 -187 -156 -215 -122 -165 -231
-317 -236 -328 -2 -7 17 -41 44 -77 54 -73 613 -841 653 -898 14 -21 153 -212
309 -427 156 -214 311 -428 344 -474 34 -46 70 -95 81 -108 l20 -24 46 63 c25
35 149 205 274 378 126 173 245 338 265 365 21 28 205 282 410 565 205 283
390 538 412 566 21 28 38 57 38 65 0 12 -32 57 -209 299 -47 65 -192 264 -831
1145 -358 494 -403 555 -407 555 -2 0 -33 -42 -71 -92z"/>
</g>
</svg>
